<svg width="30" height="30" viewBox="0 0 30 30" fill="none" xmlns="http://www.w3.org/2000/svg">
<path d="M29.5312 15C29.5312 23.0254 23.0254 29.5312 15 29.5312C6.97459 29.5312 0.46875 23.0254 0.46875 15C0.46875 6.97459 6.97459 0.46875 15 0.46875C23.0254 0.46875 29.5312 6.97459 29.5312 15ZM21.2314 12.9299C21.5207 10.9963 20.0483 9.95689 18.0351 9.2635L18.6882 6.64424L17.0937 6.24691L16.4579 8.79715C16.0387 8.69268 15.6081 8.59418 15.1804 8.49656L15.8207 5.92957L14.2271 5.53225L13.5736 8.15057C13.2266 8.07152 12.886 7.99342 12.5554 7.91127L12.5572 7.90307L10.3582 7.35404L9.93404 9.05689C9.93404 9.05689 11.1171 9.32801 11.0921 9.34477C11.738 9.50596 11.8547 9.93328 11.8351 10.272L11.0912 13.2559C11.1357 13.2673 11.1934 13.2836 11.257 13.309C11.2038 13.2959 11.1471 13.2813 11.0885 13.2673L10.0457 17.4472C9.96668 17.6434 9.76641 17.9377 9.315 17.826C9.33088 17.8491 8.15602 17.5367 8.15602 17.5367L7.36441 19.3617L9.43945 19.8789C9.82547 19.9757 10.2038 20.0769 10.5762 20.1722L9.91629 22.8214L11.509 23.2188L12.1625 20.5977C12.5849 20.7122 13.0085 20.8221 13.4332 20.9274L12.7819 23.5362L14.3764 23.9335L15.0363 21.2893C17.7553 21.8038 19.7999 21.5962 20.6605 19.1373C21.354 17.1574 20.626 16.0154 19.1954 15.2706C20.2372 15.0305 21.022 14.3453 21.2314 12.9299ZM17.5882 18.038C17.0954 20.0179 13.7616 18.9476 12.6807 18.6792L13.5563 15.1695C14.6371 15.4392 18.1032 15.9732 17.5882 18.038ZM18.0814 12.9013C17.6318 14.7022 14.8569 13.7872 13.9568 13.5629L14.7506 10.3797C15.6508 10.604 18.5496 11.0227 18.0814 12.9013Z" fill="#1DF1FF"/>
</svg>
