<svg width="30" height="30" viewBox="0 0 30 30" fill="none" xmlns="http://www.w3.org/2000/svg">
<path d="M26.25 0H3.75C1.74844 0 0 1.31133 0 2.8125V27.1875C0 28.6875 1.74844 30 3.75 30H26.25C28.2516 30 30 28.6887 30 27.1875V2.8125C30 1.31133 28.25 0 26.25 0ZM5 12.1875C5 11.6719 5.5625 11.25 6.25 11.25H8.75C9.4375 11.25 10 11.6719 10 12.1875V14.0625C10 14.5781 9.4375 15 8.75 15H6.25C5.5625 15 5 14.5781 5 14.0625V12.1875ZM5 17.8125C5 17.2969 5.5625 16.875 6.25 16.875H8.75C9.4375 16.875 10 17.2969 10 17.8125V19.6875C10 20.2031 9.4375 20.625 8.75 20.625H6.25C5.5625 20.625 5 20.2031 5 19.6875V17.8125ZM17.5 25.3125C17.5 25.8282 16.9376 26.25 16.25 26.25H6.25C5.5625 26.25 5 25.8281 5 25.3125V23.4375C5 22.9219 5.5625 22.5 6.25 22.5H16.25C16.9376 22.5 17.5 22.9218 17.5 23.4375V25.3125ZM17.5 19.6875C17.5 20.2032 16.9376 20.625 16.25 20.625H13.75C13.0625 20.625 12.5 20.2031 12.5 19.6875V17.8125C12.5 17.2969 13.0625 16.875 13.75 16.875H16.25C16.9375 16.875 17.5 17.2969 17.5 17.8125V19.6875ZM17.5 14.0625C17.5 14.5781 16.9375 15 16.25 15H13.75C13.0625 15 12.5 14.5781 12.5 14.0625V12.1875C12.5 11.6719 13.0625 11.25 13.75 11.25H16.25C16.9375 11.25 17.5 11.6719 17.5 12.1875V14.0625ZM25 25.3125C25 25.8282 24.4376 26.25 23.75 26.25H21.25C20.5626 26.25 20 25.8282 20 25.3125V23.4375C20 22.9218 20.5626 22.5 21.25 22.5H23.75C24.4376 22.5 25 22.9218 25 23.4375V25.3125ZM25 19.6875C25 20.2032 24.4376 20.625 23.75 20.625H21.25C20.5626 20.625 20 20.2032 20 19.6875V17.8125C20 17.2969 20.5625 16.875 21.25 16.875H23.75C24.4375 16.875 25 17.2969 25 17.8125V19.6875ZM25 14.0625C25 14.5781 24.4375 15 23.75 15H21.25C20.5625 15 20 14.5781 20 14.0625V12.1875C20 11.6719 20.5625 11.25 21.25 11.25H23.75C24.4375 11.25 25 11.6719 25 12.1875V14.0625ZM25 8.4375C25 8.95312 24.4375 9.375 23.75 9.375H6.25C5.5625 9.375 5 8.95312 5 8.4375V4.6875C5 4.17188 5.5625 3.75 6.25 3.75H23.75C24.4375 3.75 25 4.17188 25 4.6875V8.4375Z" fill="#1DF1FF"/>
</svg>
