<svg width="30" height="30" viewBox="0 0 30 30" fill="none" xmlns="http://www.w3.org/2000/svg">
<path d="M3.75 24.6429C3.75 25.2321 4.16953 25.7143 4.6875 25.7143H28.125C29.1621 25.7143 30 26.6719 30 27.8571C30 29.0424 29.1621 30 28.125 30H4.6875C2.09883 30 0 27.6027 0 24.6429V2.14286C0 0.959598 0.839648 0 1.875 0C2.91035 0 3.75 0.959598 3.75 2.14286V24.6429ZM20.0742 16.5134C19.3418 17.3504 18.1582 17.3504 17.4258 16.5134L14.0625 12.6763L8.82422 18.6562C8.0918 19.4933 6.9082 19.4933 6.17578 18.6562C5.44219 17.8192 5.44219 16.4665 6.17578 15.6295L12.7383 8.12946C13.4707 7.29241 14.6543 7.29241 15.3867 8.12946L18.75 11.9665L24.9258 4.91518C25.6582 4.07679 26.8418 4.07679 27.5742 4.91518C28.3066 5.75223 28.3066 7.10491 27.5742 7.94196L20.0742 16.5134Z" fill="#1DF1FF"/>
</svg>
