<svg width="100" height="101" viewBox="0 0 100 101" fill="none" xmlns="http://www.w3.org/2000/svg">
<path d="M96.7586 7.19035C101.08 11.5061 101.08 18.5037 96.7586 22.8195L90.8382 28.7594L71.4983 9.42421L77.4385 3.49224C81.7603 -0.824235 88.7464 -0.824235 93.0682 3.49224L96.7586 7.19035ZM34.0224 46.9145L67.0383 13.888L86.3782 33.2192L53.3425 66.2338C52.1387 67.4573 50.6586 68.3651 49.0207 68.9176L31.4964 74.7588C29.6216 75.3114 27.9244 74.8772 26.6417 73.4367C25.3787 72.3316 24.9445 70.4569 25.4971 68.7598L31.3385 51.2362C31.8911 49.5983 32.7989 48.1182 34.0224 46.9145ZM37.8904 11.6699C41.3834 11.6699 44.2054 14.6754 44.2054 17.9847C44.2054 21.6552 41.3834 24.2995 37.8904 24.2995H18.9452C15.4581 24.2995 12.6301 27.2991 12.6301 30.6144V81.3104C12.6301 84.8033 15.4581 87.6253 18.9452 87.6253H69.4657C72.9587 87.6253 75.7808 84.8033 75.7808 81.3104V62.1884C75.7808 58.8731 78.6028 55.8736 82.0958 55.8736C85.5888 55.8736 88.4109 58.8731 88.4109 62.1884V81.3104C88.4109 91.7694 79.925 100.255 69.4657 100.255H18.9452C8.48192 100.255 0 91.7694 0 81.3104V30.6144C0 20.1554 8.48192 11.6699 18.9452 11.6699H37.8904Z" fill="#EEEEEE"/>
</svg>
