<svg width="30" height="30" viewBox="0 0 30 30" fill="none" xmlns="http://www.w3.org/2000/svg">
<path d="M29.0567 9.76172C29.25 10.2656 29.086 10.834 28.6875 11.2031L26.1504 13.5117C26.2149 13.998 26.25 14.4961 26.25 15C26.25 15.5039 26.2149 16.002 26.1504 16.4883L28.6875 18.7969C29.086 19.166 29.25 19.7344 29.0567 20.2383C28.7988 20.9355 28.4883 21.6094 28.1367 22.248L27.8613 22.7227C27.4746 23.3672 27.041 23.9766 26.5664 24.5566C26.2149 24.9727 25.6465 25.1191 25.1309 24.9551L21.8672 23.9121C21.0821 24.5156 20.1621 25.0195 19.2891 25.4062L18.5567 28.752C18.4395 29.2793 18.0293 29.6543 17.4902 29.7949C16.6817 29.9297 15.8496 30 14.9473 30C14.1504 30 13.3184 29.9297 12.5098 29.7949C11.9707 29.6543 11.5606 29.2793 11.4434 28.752L10.711 25.4062C9.78517 25.0195 8.91798 24.5156 8.13283 23.9121L4.8715 24.9551C4.35353 25.1191 3.78224 24.9727 3.43536 24.5566C2.96017 23.9766 2.52657 23.3672 2.13985 22.7227L1.86564 22.248C1.50997 21.6094 1.2006 20.9355 0.941025 20.2383C0.751181 19.7344 0.911142 19.166 1.3131 18.7969L3.84786 16.4883C3.78341 16.002 3.75001 15.5039 3.75001 15C3.75001 14.4961 3.78341 13.998 3.84786 13.5117L1.3131 11.2031C0.911142 10.834 0.751181 10.2715 0.941025 9.76172C1.2006 9.06445 1.51056 8.39062 1.86564 7.75195L2.13927 7.27734C2.52657 6.63281 2.96017 6.02344 3.43536 5.44629C3.78224 5.02734 4.35353 4.88203 4.8715 5.04727L8.13283 6.08789C8.91798 5.48203 9.78517 4.97813 10.711 4.59551L11.4434 1.2498C11.5606 0.717773 11.9707 0.295312 12.5098 0.205664C13.3184 0.0703711 14.1504 0 15 0C15.8496 0 16.6817 0.0703711 17.4902 0.205664C18.0293 0.295312 18.4395 0.717773 18.5567 1.2498L19.2891 4.59551C20.1621 4.97813 21.0821 5.48203 21.8672 6.08789L25.1309 5.04727C25.6465 4.88203 26.2149 5.02734 26.5664 5.44629C27.041 6.02344 27.4746 6.63281 27.8613 7.27734L28.1367 7.75195C28.4883 8.39062 28.7988 9.06445 29.0567 9.76172ZM15 19.6875C17.5899 19.6875 19.6875 17.5898 19.6875 14.9473C19.6875 12.4102 17.5899 10.2598 15 10.2598C12.4102 10.2598 10.3125 12.4102 10.3125 14.9473C10.3125 17.5898 12.4102 19.6875 15 19.6875Z" fill="#C4C4C4"/>
</svg>
