<svg width="30" height="30" viewBox="0 0 30 30" fill="none" xmlns="http://www.w3.org/2000/svg">
<path d="M15 0C6.71484 0 0 6.71484 0 15C0 23.2852 6.71484 30 15 30C23.2852 30 30 23.2852 30 15C30 6.71484 23.2852 0 15 0ZM15 7.5C16.0354 7.5 16.875 8.33965 16.875 9.375C16.875 10.4104 16.0354 11.25 15 11.25C13.9646 11.25 13.125 10.4121 13.125 9.375C13.125 8.33789 13.9629 7.5 15 7.5ZM17.3438 22.5H12.6562C11.8828 22.5 11.25 21.873 11.25 21.0938C11.25 20.3145 11.8799 19.6875 12.6562 19.6875H13.5938V15.9375H13.125C12.3486 15.9375 11.7188 15.3076 11.7188 14.5312C11.7188 13.7549 12.3516 13.125 13.125 13.125H15C15.7764 13.125 16.4062 13.7549 16.4062 14.5312V19.6875H17.3438C18.1201 19.6875 18.75 20.3174 18.75 21.0938C18.75 21.8701 18.123 22.5 17.3438 22.5Z" fill="#1DF1FF"/>
</svg>
