<svg width="30" height="28" viewBox="0 0 30 28" fill="none" xmlns="http://www.w3.org/2000/svg">
<path d="M9.375 23.375H5.625C4.58965 23.375 3.75 22.5354 3.75 21.5V6.5C3.75 5.46465 4.58965 4.625 5.625 4.625H9.375C10.4104 4.625 11.25 3.78535 11.25 2.75C11.25 1.71465 10.4121 0.875 9.375 0.875H5.625C2.51836 0.875 0 3.39336 0 6.5V21.5C0 24.6066 2.51836 27.125 5.625 27.125H9.375C10.4104 27.125 11.25 26.2854 11.25 25.25C11.25 24.2146 10.4121 23.375 9.375 23.375ZM29.4492 12.6758L21.9492 5.17578C21.2162 4.44277 20.0297 4.44395 19.2979 5.17578C18.5654 5.9082 18.5654 7.09473 19.2979 7.82715L23.6016 12.125H11.25C10.2129 12.125 9.375 12.9629 9.375 14C9.375 15.0371 10.2135 15.875 11.25 15.875H23.6016L19.302 20.1746C18.5695 20.907 18.5695 22.0936 19.302 22.826C20.0344 23.5584 21.2209 23.5584 21.9533 22.826L29.4533 15.326C30.1816 14.5918 30.1816 13.4082 29.4492 12.6758Z" fill="#C4C4C4"/>
</svg>
