<svg width="30" height="30" viewBox="0 0 30 30" fill="none" xmlns="http://www.w3.org/2000/svg">
<path d="M30 15C30 23.2852 23.2852 30 15 30C6.71484 30 0 23.2852 0 15C0 6.71484 6.71484 0 15 0C23.2852 0 30 6.71484 30 15ZM15 3.75C13.9629 3.75 13.125 4.58965 13.125 5.625C13.125 6.66211 13.9629 7.5 15 7.5C16.0371 7.5 16.875 6.66211 16.875 5.625C16.875 4.58965 16.0371 3.75 15 3.75ZM15 24.375C17.0684 24.375 18.75 22.6934 18.75 20.625C18.75 19.6055 18.3457 18.6855 17.6895 18.0117L21.3926 9.47461C21.7559 8.75977 21.4336 7.93359 20.7246 7.61719C20.0098 7.30664 19.1836 7.62891 18.8672 8.33789L15.1113 16.875C15.0762 16.875 15.0352 16.8223 15 16.8223C12.9316 16.8223 11.25 18.5566 11.25 20.625C11.25 22.6934 12.9316 24.375 15 24.375ZM8.4375 6.5625C7.40039 6.5625 6.5625 7.40039 6.5625 8.4375C6.5625 9.47461 7.40039 10.3125 8.4375 10.3125C9.47461 10.3125 10.3125 9.47461 10.3125 8.4375C10.3125 7.40039 9.47461 6.5625 8.4375 6.5625ZM5.625 16.875C6.66211 16.875 7.5 16.0371 7.5 15C7.5 13.9629 6.66211 13.125 5.625 13.125C4.58965 13.125 3.75 13.9629 3.75 15C3.75 16.0371 4.58965 16.875 5.625 16.875ZM24.375 13.125C23.3379 13.125 22.5 13.9629 22.5 15C22.5 16.0371 23.3379 16.875 24.375 16.875C25.4121 16.875 26.25 16.0371 26.25 15C26.25 13.9629 25.4121 13.125 24.375 13.125Z" fill="#1DF1FF"/>
</svg>
